<svg width="124" height="37" viewBox="0 0 124 37" fill="none" xmlns="http://www.w3.org/2000/svg">
<path fill-rule="evenodd" clip-rule="evenodd" d="M5.32153 19.6339H20.3335C21.3709 19.6339 22.0422 18.7758 22.0422 17.795C22.0422 16.6917 21.432 15.8948 20.3335 15.8948H5.32153V6.76173C5.32153 5.7197 5.7487 5.22933 6.84714 5.22933H22.3473C23.5068 5.22933 24.117 4.37118 24.117 3.26785C24.117 2.16452 23.5068 1.36768 22.3473 1.36768H5.68768C2.57544 1.36768 1.17188 2.71619 1.17188 6.14877V31.035C1.17188 34.4062 2.51441 35.7548 5.68768 35.7548H22.7135C23.8729 35.7548 24.4832 34.8966 24.4832 33.7933C24.4832 32.69 23.8729 31.8931 22.7135 31.8931H6.96919C5.9928 31.8931 5.32153 31.464 5.32153 30.4833V19.6339Z" fill="white"/>
<path fill-rule="evenodd" clip-rule="evenodd" d="M5.32153 19.6339H20.3335C21.3709 19.6339 22.0422 18.7758 22.0422 17.795C22.0422 16.6917 21.432 15.8948 20.3335 15.8948H5.32153V6.76173C5.32153 5.71969 5.7487 5.22933 6.84714 5.22933H22.3473C23.5068 5.22933 24.117 4.37118 24.117 3.26785C24.117 2.16452 23.5068 1.36768 22.3473 1.36768H5.68768C2.57544 1.36768 1.17188 2.71619 1.17188 6.14877V31.035C1.17188 34.4062 2.51441 35.7548 5.68768 35.7548H22.7135C23.8729 35.7548 24.4832 34.8966 24.4832 33.7933C24.4832 32.69 23.8729 31.8931 22.7135 31.8931H6.96919C5.9928 31.8931 5.32153 31.464 5.32153 30.4833V19.6339V19.6339Z" stroke="white" stroke-width="0.6501" stroke-miterlimit="3.8637"/>
<path fill-rule="evenodd" clip-rule="evenodd" d="M29.7891 31.0961C29.7891 34.4061 31.1316 35.7546 34.2438 35.7546H50.9035C52.0629 35.7546 52.6732 34.7739 52.6732 33.7319C52.6732 32.6285 52.0019 31.8317 50.9035 31.8317H35.5253C34.549 31.8317 33.9387 31.28 33.9387 30.2993V3.32911C33.9387 2.0419 33.0844 1.49023 31.8639 1.49023C30.7044 1.49023 29.7891 2.0419 29.7891 3.39041V31.0961Z" fill="white"/>
<path fill-rule="evenodd" clip-rule="evenodd" d="M29.7891 31.0961C29.7891 34.4061 31.1316 35.7546 34.2438 35.7546H50.9035C52.0629 35.7546 52.6732 34.7739 52.6732 33.7319C52.6732 32.6285 52.0019 31.8317 50.9035 31.8317H35.5253C34.549 31.8317 33.9387 31.28 33.9387 30.2993V3.32911C33.9387 2.0419 33.0844 1.49023 31.8639 1.49023C30.7044 1.49023 29.7891 2.0419 29.7891 3.39041V31.0961Z" stroke="white" stroke-width="0.6501" stroke-miterlimit="3.8637"/>
<path fill-rule="evenodd" clip-rule="evenodd" d="M57.9844 33.9772V3.0227C57.9844 1.79678 58.8387 1.24512 59.9982 1.24512C61.2187 1.24512 62.134 1.79678 62.134 3.0227V4.18732H61.951C60.8525 4.18732 59.9372 5.10676 59.9372 6.21009C59.9372 7.31342 60.8525 8.23286 61.951 8.23286H62.134V33.9159C62.134 35.0805 61.2187 35.6934 59.9982 35.6934C58.8387 35.7547 57.9844 35.1418 57.9844 33.9772Z" fill="white"/>
<path fill-rule="evenodd" clip-rule="evenodd" d="M57.9844 33.9772V3.0227C57.9844 1.79678 58.8387 1.24512 59.9982 1.24512C61.2187 1.24512 62.134 1.79678 62.134 3.0227V4.18732H61.951C60.8525 4.18732 59.9372 5.10676 59.9372 6.21009C59.9372 7.31342 60.8525 8.23286 61.951 8.23286H62.134V33.9159C62.134 35.0805 61.2187 35.6934 59.9982 35.6934C58.8387 35.7547 57.9844 35.1418 57.9844 33.9772Z" stroke="white" stroke-width="0.6501" stroke-miterlimit="3.8637"/>
<path fill-rule="evenodd" clip-rule="evenodd" d="M71.53 21.5953H81.355C88.2507 21.5953 92.2783 17.7949 92.2783 11.2975C92.2783 5.10666 88.4338 1.61279 81.538 1.61279H71.8962C68.7839 1.61279 67.4414 2.9613 67.4414 6.33258V33.977C67.4414 35.2642 68.2957 35.8772 69.4552 35.8772C70.6147 35.8772 71.469 35.2642 71.469 34.0383V21.5953H71.53ZM71.53 17.9175V6.76165C71.53 5.78091 71.9572 5.22925 72.9336 5.22925H81.2939C85.6267 5.22925 88.0066 7.37461 88.0066 11.2975C88.0066 15.527 85.6877 17.8562 81.2939 17.8562H71.53V17.9175Z" fill="white"/>
<path fill-rule="evenodd" clip-rule="evenodd" d="M71.53 21.5953H81.355C88.2507 21.5953 92.2783 17.7949 92.2783 11.2975C92.2783 5.10666 88.4338 1.61279 81.538 1.61279H71.8962C68.7839 1.61279 67.4414 2.9613 67.4414 6.33258V33.977C67.4414 35.2642 68.2957 35.8772 69.4552 35.8772C70.6147 35.8772 71.469 35.2642 71.469 34.0383V21.5953H71.53ZM71.53 17.9175V6.76165C71.53 5.78091 71.9572 5.22925 72.9336 5.22925H81.2939C85.6267 5.22925 88.0066 7.37461 88.0066 11.2975C88.0066 15.527 85.6877 17.8562 81.2939 17.8562H71.53V17.9175Z" stroke="white" stroke-width="0.6501" stroke-miterlimit="3.8637"/>
<path fill-rule="evenodd" clip-rule="evenodd" d="M123.034 26.1312C123.034 31.6478 118.823 35.7546 111.256 35.7546L111.195 32.1995C115.955 32.1382 118.884 29.8089 118.884 26.1925C118.884 22.6986 116.993 21.1662 111.989 20.1242L111.256 19.9403V15.9561L112.843 16.2625C119.373 17.6723 123.034 19.9403 123.034 26.1312Z" fill="#F6A458"/>
<path fill-rule="evenodd" clip-rule="evenodd" d="M111.198 1.24512C118.399 1.429 120.901 5.41323 121.816 8.41672C121.877 8.60061 121.938 8.84579 121.938 9.02968C121.938 9.94911 121.206 10.5621 120.351 10.746C120.168 10.8073 119.863 10.8073 119.619 10.8073C118.826 10.8073 118.093 10.4395 117.727 9.58134C117.056 7.2521 115.408 4.98416 111.137 4.80027V1.24512H111.198Z" fill="#F6A558" stroke="#F6A558" stroke-width="0.6911" stroke-miterlimit="3.8637"/>
<path fill-rule="evenodd" clip-rule="evenodd" d="M123.038 26.1312C123.038 31.6478 118.827 35.7546 111.26 35.7546L111.199 32.1995C115.959 32.1382 118.888 29.8089 118.888 26.1925C118.888 22.6986 116.997 21.1662 111.993 20.1242L111.26 19.9403V15.9561L112.847 16.2625C119.376 17.6723 123.038 19.9403 123.038 26.1312Z" fill="#F6A558" stroke="#F6A558" stroke-width="0.6911" stroke-miterlimit="3.8637"/>
<path fill-rule="evenodd" clip-rule="evenodd" d="M109.001 35.7548C100.458 35.3257 98.6273 30.6059 97.6509 27.2959C97.5898 27.112 97.5898 26.9281 97.5898 26.7442C97.5898 25.8248 98.3221 25.1506 99.1765 24.9667C99.4206 24.9054 99.6647 24.9054 99.9088 24.9054C100.702 24.9054 101.495 25.2731 101.801 26.1926C102.533 28.8896 103.814 31.8318 109.062 32.1996V35.7548H109.001ZM108.757 15.6497L109.001 15.711V19.6952L107.659 19.3887C101.312 18.0402 98.3832 15.6497 98.3832 10.0717C98.3832 5.71973 101.495 1.4903 109.001 1.24512V4.80028C104.547 5.04547 102.533 7.37472 102.533 10.0717C102.533 13.1365 103.997 14.7302 108.757 15.6497Z" fill="white"/>
<path fill-rule="evenodd" clip-rule="evenodd" d="M109.001 35.7548C100.458 35.3257 98.6273 30.6059 97.6509 27.2959C97.5898 27.112 97.5898 26.9281 97.5898 26.7442C97.5898 25.8248 98.3221 25.1506 99.1765 24.9667C99.4206 24.9054 99.6647 24.9054 99.9088 24.9054C100.702 24.9054 101.495 25.2731 101.801 26.1926C102.533 28.8896 103.814 31.8318 109.062 32.1996V35.7548H109.001ZM108.757 15.6497L109.001 15.711V19.6952L107.659 19.3887C101.312 18.0402 98.3832 15.6497 98.3832 10.0717C98.3832 5.71973 101.495 1.4903 109.001 1.24512V4.80028C104.547 5.04547 102.533 7.37472 102.533 10.0717C102.533 13.1365 103.997 14.7302 108.757 15.6497Z" stroke="white" stroke-width="0.6501" stroke-miterlimit="3.8637"/>
</svg>
