<svg width="15" height="14" viewBox="0 0 15 14" fill="none" xmlns="http://www.w3.org/2000/svg">
<path fill-rule="evenodd" clip-rule="evenodd" d="M14.7823 13.2371H11.5844V8.58375C11.5844 7.36576 11.0841 6.53427 9.98409 6.53427C9.14269 6.53427 8.67477 7.09538 8.45698 7.63614C8.3753 7.83024 8.38807 8.10062 8.38807 8.37101V13.2371H5.21985C5.21985 13.2371 5.26069 4.99417 5.21985 4.2449H8.38807V5.65615C8.57523 5.03909 9.58763 4.15844 11.2032 4.15844C13.2076 4.15844 14.7824 5.45187 14.7824 8.23706V13.237L14.7823 13.2371ZM2.01572 3.12H1.9953C0.974392 3.12 0.3125 2.4326 0.3125 1.56127C0.3125 0.672989 0.993959 0 2.03529 0C3.07577 0 3.71554 0.671295 3.73596 1.55873C3.73596 2.43005 3.07577 3.11999 2.01572 3.11999L2.01572 3.12ZM0.677819 4.24512H3.49801V13.2373H0.677819V4.24512Z" fill="#F67B10"/>
</svg>
