<svg width="18" height="18" viewBox="0 0 18 18" fill="none" xmlns="http://www.w3.org/2000/svg">
<path fill-rule="evenodd" clip-rule="evenodd" d="M3.47315 2.04998C4.40735 1.11578 5.95237 1.22558 6.74506 2.28251L8.0609 4.03692C8.70908 4.90123 8.62318 6.11068 7.85921 6.87463L6.88909 7.84475C6.98311 8.08949 7.2926 8.62645 8.23508 9.56895C9.17758 10.5114 9.71461 10.821 9.95935 10.915L10.9294 9.94489C11.6934 9.18092 12.9028 9.09495 13.7671 9.7432L15.5216 11.059C16.5785 11.8517 16.6883 13.3968 15.7541 14.3309C15.4504 14.6346 15.399 14.686 14.8921 15.1929C14.3756 15.7094 13.2788 16.1923 12.1683 16.2405C10.4305 16.3161 8.07016 15.5445 5.16486 12.6392C2.2596 9.73394 1.48798 7.37353 1.56354 5.63578C1.60557 4.66911 1.9129 3.60741 2.61524 2.91598C3.11804 2.40509 3.18343 2.3397 3.47315 2.04998ZM3.00949 5.69865C2.95712 6.90322 3.46478 8.89232 6.18828 11.6158C8.91178 14.3393 10.9008 14.847 12.1054 14.7946C13.2299 14.7457 13.8331 14.2023 13.8687 14.1695L14.7307 13.3075C15.0421 12.9961 15.0055 12.4811 14.6532 12.2169L12.8987 10.9011C12.6106 10.685 12.2075 10.7136 11.9528 10.9683C11.5692 11.352 11.3072 11.6177 10.7946 12.1285C9.72966 13.1894 7.90669 11.2874 7.21169 10.5924C6.573 9.95372 4.6266 8.07285 5.67456 7.01246C5.67664 7.01038 5.9589 6.72811 6.83579 5.85122C7.09044 5.59657 7.1191 5.19342 6.90302 4.90532L5.5872 3.1509C5.32297 2.79859 4.80796 2.76199 4.49657 3.07339C4.20996 3.35999 3.8856 3.68435 3.63548 3.93621C3.12069 4.45456 3.03704 5.06501 3.00949 5.69865Z" fill="#F67B10"/>
</svg>
