<svg width="80" height="26" viewBox="0 0 80 26" fill="none" xmlns="http://www.w3.org/2000/svg">
<path d="M67.6575 0.529675C67.7789 0.37753 67.9303 0.252259 68.1021 0.16172C68.274 0.0711812 68.4626 0.0173286 68.6561 0.00354079C68.8496 -0.010247 69.0438 0.0163275 69.2267 0.0815972C69.4095 0.146867 69.5769 0.249423 69.7184 0.382832C69.8312 0.48973 69.9214 0.618477 69.9834 0.761321C70.0454 0.904166 70.0781 1.05815 70.0794 1.21402V12.8506L76.0169 7.09882C76.2401 6.89102 76.4467 6.66937 76.6754 6.46989C76.8107 6.36378 76.9665 6.28713 77.1328 6.24482C77.2992 6.20251 77.4725 6.19546 77.6417 6.22412C77.8109 6.25279 77.9723 6.31653 78.1157 6.41131C78.2591 6.50609 78.3813 6.62982 78.4746 6.77466C78.6032 6.9922 78.6558 7.2468 78.6238 7.49788C78.5919 7.74895 78.4773 7.98204 78.2982 8.15997C76.9206 9.49264 75.5182 10.8087 74.1406 12.1469C75.9346 14.4341 77.5154 16.8826 78.863 19.4613C78.9587 19.6322 79.0101 19.8245 79.0125 20.0206C79.015 20.2167 78.9683 20.4102 78.8768 20.5834C78.4773 21.2622 77.4138 21.4922 76.8297 20.9214C76.4605 20.5557 76.3034 20.0432 76.0362 19.6054C74.9334 17.5976 73.6769 15.6791 72.278 13.8674C71.5433 14.5527 70.815 15.2389 70.0931 15.926C70.0931 17.1913 70.0931 18.4556 70.0931 19.719C70.1371 20.0728 70.0509 20.4305 69.8507 20.7247C69.7234 20.8821 69.5639 21.0101 69.383 21.0999C69.2021 21.1896 69.0041 21.2391 68.8024 21.2449C68.6008 21.2507 68.4003 21.2126 68.2146 21.1334C68.0289 21.0541 67.8624 20.9355 67.7264 20.7857C67.524 20.5427 67.4188 20.2325 67.4316 19.9157C67.4316 13.7649 67.4316 7.61323 67.4316 1.4606C67.3924 1.13303 67.4727 0.802264 67.6575 0.529675Z" fill="white"/>
<path d="M44.5167 3.38315C44.5267 3.03797 44.6708 2.71046 44.9179 2.47071C45.1651 2.23097 45.4958 2.09803 45.8392 2.10035C46.177 2.08889 46.506 2.21045 46.756 2.43916C47.0061 2.66787 47.1576 2.98568 47.1782 3.32497C47.1782 4.34178 47.1782 5.3586 47.1782 6.37265H50.0464C50.2033 6.34878 50.3634 6.35926 50.5159 6.40337C50.6684 6.44748 50.8096 6.52417 50.9299 6.62821C51.0502 6.73225 51.1467 6.86119 51.2129 7.0062C51.2791 7.15121 51.3133 7.30888 51.3133 7.46843C51.3133 7.62798 51.2791 7.78565 51.2129 7.93066C51.1467 8.07567 51.0502 8.20461 50.9299 8.30865C50.8096 8.41269 50.6684 8.48938 50.5159 8.53349C50.3634 8.5776 50.2033 8.58808 50.0464 8.56421C49.0903 8.56421 48.1343 8.56421 47.1782 8.56421C47.1782 10.5554 47.1782 12.5474 47.1782 14.5404C47.1532 15.3142 47.2142 16.0883 47.3601 16.8484C47.4813 17.4025 47.7045 17.9926 48.2087 18.3029C48.9471 18.7601 49.848 18.7407 50.6884 18.7324C50.8555 18.722 51.023 18.7459 51.1808 18.8026C51.3385 18.8593 51.4831 18.9476 51.6059 19.0621C51.7862 19.2347 51.9055 19.4618 51.9458 19.7088C51.9861 19.9558 51.9451 20.2093 51.829 20.4308C51.7338 20.6049 51.5976 20.753 51.4324 20.8622C51.2672 20.9713 51.078 21.0382 50.8812 21.0569C50.4762 21.0791 50.0684 21.0569 49.6607 21.0569C48.4291 21.0375 47.1231 20.7799 46.156 19.9653C45.3598 19.2976 44.9575 18.2836 44.7481 17.2834C44.4505 15.9368 44.5249 14.5488 44.5167 13.1773V8.55867C44.1475 8.54482 43.7783 8.58084 43.4146 8.53651C43.1523 8.49582 42.9134 8.36133 42.7418 8.15774C42.5702 7.95414 42.4774 7.69512 42.4805 7.42826C42.4923 7.15911 42.6012 6.9035 42.7868 6.70922C42.9724 6.51494 43.222 6.39529 43.489 6.37265C43.8306 6.35603 44.175 6.37265 44.5167 6.37265V3.38315Z" fill="white"/>
<path d="M19.4955 6.04074C19.9824 5.93955 20.478 5.88666 20.9751 5.88281C20.9751 8.38561 20.9751 10.8856 20.9751 13.3829C20.9735 13.5822 21.0461 13.7749 21.1787 13.9231C21.3112 14.0713 21.4942 14.1642 21.6915 14.1836C22.2645 14.1836 22.8404 14.1836 23.4135 14.1836C23.5092 14.1866 23.6031 14.2102 23.689 14.2529C23.7439 14.4473 23.7672 14.6494 23.7579 14.8513C23.7579 16.7547 23.7579 18.6554 23.7579 20.5588C23.2905 20.7364 22.8082 20.8718 22.3169 20.9633C22.3169 19.481 22.3169 17.9987 22.3169 16.5303C22.313 16.3355 22.2357 16.1494 22.1007 16.0095C21.9658 15.8697 21.7831 15.7865 21.5895 15.7767C21.2065 15.7767 20.8208 15.7767 20.4351 15.7767C20.1584 15.7959 19.8805 15.7782 19.6085 15.7241C19.5499 15.6204 19.5213 15.5024 19.5258 15.3833C19.5258 14.372 19.5258 13.3607 19.5258 12.3356C19.7102 12.2748 19.8715 12.1585 19.9878 12.0023C20.1042 11.8462 20.1699 11.6578 20.1761 11.4628C20.1807 11.3361 20.1586 11.2099 20.1115 11.0923C20.0643 10.9747 19.9931 10.8684 19.9024 10.7803C19.8117 10.6923 19.7036 10.6244 19.585 10.5811C19.4665 10.5378 19.3403 10.5201 19.2145 10.5291C19.0944 10.5275 18.9751 10.5506 18.8642 10.5971C18.7533 10.6436 18.6531 10.7124 18.5697 10.7994C18.4863 10.8864 18.4215 10.9897 18.3793 11.1028C18.3372 11.216 18.3185 11.3366 18.3246 11.4573C18.3252 11.6525 18.3879 11.8425 18.5033 11.9995C18.6188 12.1564 18.7811 12.2722 18.9665 12.33C18.9665 13.3857 18.9665 14.4413 18.9665 15.4969C18.9643 15.598 18.982 15.6986 19.0185 15.7929C19.0549 15.8872 19.1095 15.9734 19.1791 16.0464C19.2487 16.1195 19.332 16.1781 19.4241 16.2188C19.5162 16.2595 19.6154 16.2816 19.716 16.2837C20.3083 16.2837 20.9007 16.2837 21.4931 16.2837C21.5662 16.2837 21.6362 16.3129 21.6879 16.3649C21.7396 16.4168 21.7686 16.4873 21.7686 16.5608C21.7686 18.0458 21.7686 19.5309 21.7686 21.0159C21.292 21.0589 20.8125 21.0589 20.3359 21.0159C20.3359 20.2346 20.3359 19.4533 20.3359 18.672C20.332 18.5699 20.3081 18.4695 20.2655 18.3767C20.2229 18.2839 20.1625 18.2004 20.0877 18.1312C20.0129 18.0619 19.9253 18.0082 19.8298 17.9731C19.7343 17.938 19.6329 17.9222 19.5314 17.9267H14.9411C13.9589 16.5891 13.4444 14.9622 13.4781 13.2998C13.4816 12.7551 13.5548 12.2132 13.6958 11.6873C14.5361 11.6873 15.3765 11.6873 16.2196 11.6873C16.256 11.6846 16.2926 11.6893 16.3272 11.701C16.3618 11.7127 16.3937 11.7312 16.4212 11.7555C16.4486 11.7797 16.471 11.8092 16.487 11.8422C16.503 11.8752 16.5123 11.911 16.5144 11.9477C16.5144 13.056 16.5144 14.1642 16.5144 15.2724C16.3053 15.3386 16.1267 15.4779 16.0109 15.665C15.8951 15.8522 15.8498 16.0748 15.8831 16.2926C15.9164 16.5105 16.0261 16.7091 16.1924 16.8527C16.3588 16.9962 16.5707 17.0751 16.7899 17.0751C17.0091 17.0751 17.221 16.9962 17.3874 16.8527C17.5537 16.7091 17.6634 16.5105 17.6967 16.2926C17.73 16.0748 17.6847 15.8522 17.5689 15.665C17.4531 15.4779 17.2745 15.3386 17.0654 15.2724C17.0654 14.2723 17.0654 13.2721 17.0654 12.2719C17.0802 12.0576 17.0549 11.8424 16.991 11.6374C16.9303 11.4972 16.8301 11.3779 16.7029 11.2942C16.5756 11.2105 16.4267 11.1661 16.2747 11.1664C15.4481 11.1664 14.6408 11.1664 13.8253 11.1664C14.4065 9.35819 15.6362 7.83226 17.2748 6.88578C17.8074 6.57992 18.3744 6.33902 18.9638 6.16819C18.9638 7.07972 18.9638 7.99126 18.9638 8.90002C18.9687 8.96963 18.9473 9.03855 18.9039 9.093C18.8605 9.14745 18.7982 9.18341 18.7296 9.19371C18.3797 9.22141 18.0242 9.19371 17.6743 9.19371C17.5949 8.9651 17.432 8.77545 17.2186 8.66327C17.0052 8.55109 16.7574 8.52479 16.5254 8.58971C16.4103 8.62609 16.3035 8.68491 16.2111 8.7628C16.1186 8.8407 16.0423 8.93614 15.9866 9.04368C15.9308 9.15122 15.8966 9.26876 15.886 9.38957C15.8754 9.51039 15.8886 9.63213 15.9248 9.74783C15.9609 9.86353 16.0194 9.97093 16.0969 10.0639C16.1744 10.1569 16.2693 10.2336 16.3762 10.2897C16.4832 10.3458 16.6 10.3801 16.7202 10.3908C16.8403 10.4014 16.9614 10.3882 17.0764 10.3518C17.2157 10.3041 17.3419 10.2244 17.4452 10.1191C17.5485 10.0137 17.626 9.8857 17.6716 9.74506C18.0573 9.74506 18.4458 9.76168 18.8315 9.73121C19.0178 9.71052 19.1897 9.62066 19.3135 9.47922C19.4374 9.33778 19.5042 9.15494 19.501 8.96651C19.4955 7.98571 19.4983 7.01323 19.4955 6.04074Z" fill="#FC7B0A"/>
<path d="M21.5234 13.385C21.5234 10.8877 21.5234 8.39416 21.5234 5.9043C22.6878 5.98733 23.8183 6.335 24.8297 6.92111C24.8297 7.79663 24.8297 8.66938 24.8297 9.54212C24.8354 9.73596 24.9154 9.92007 25.0531 10.0559C25.1907 10.1917 25.3753 10.2687 25.5681 10.2708C26.3341 10.2708 27.1 10.2486 27.8632 10.2902C28.0708 10.7448 28.2359 11.2179 28.3564 11.7032C26.83 11.7032 25.3064 11.7032 23.78 11.7032C23.7451 11.7076 23.7097 11.7044 23.6761 11.6938C23.6426 11.6832 23.6117 11.6655 23.5856 11.6418C23.5594 11.6182 23.5387 11.5891 23.5247 11.5567C23.5107 11.5243 23.5038 11.4892 23.5044 11.4539C23.5044 10.9551 23.5044 10.4564 23.5044 9.95772C23.6474 9.90811 23.7768 9.8257 23.8825 9.717C23.9882 9.60831 24.0672 9.47633 24.1134 9.33156C24.1646 9.15872 24.1641 8.97451 24.1118 8.80198C24.0595 8.62945 23.9578 8.47625 23.8193 8.36157C23.6809 8.24688 23.5119 8.17579 23.3335 8.15719C23.1551 8.13859 22.9752 8.17331 22.8163 8.25701C22.6574 8.3407 22.5266 8.46965 22.4402 8.62772C22.3538 8.78579 22.3157 8.96597 22.3306 9.14572C22.3455 9.32546 22.4129 9.49678 22.5241 9.63826C22.6354 9.77973 22.7857 9.88507 22.9562 9.94109C22.9699 10.4481 22.9562 10.9551 22.9562 11.4649C22.9596 11.6711 23.0421 11.868 23.1863 12.0146C23.3305 12.1611 23.5254 12.2461 23.7304 12.2518H28.4749C28.5483 12.7237 28.5806 13.2011 28.5713 13.6787H26.4746C26.3252 13.6727 26.1774 13.7107 26.0492 13.788C25.921 13.8653 25.818 13.9784 25.7527 14.1136C25.6925 14.2667 25.6707 14.4322 25.6893 14.5957C25.6893 16.2138 25.6893 17.8291 25.6893 19.4471C25.255 19.7904 24.7858 20.0866 24.2897 20.3309V14.4655C24.298 14.2598 24.2255 14.0591 24.0878 13.9067C23.9502 13.7543 23.7585 13.6624 23.554 13.651C22.9782 13.651 22.3996 13.651 21.8238 13.651C21.7865 13.6544 21.7489 13.6501 21.7133 13.6384C21.6776 13.6267 21.6448 13.6078 21.6167 13.583C21.5886 13.5581 21.5658 13.5277 21.5498 13.4936C21.5337 13.4596 21.5248 13.4226 21.5234 13.385Z" fill="#FC7B0A"/>
<path d="M29.0204 6.71381C29.222 6.47624 29.4936 6.30947 29.7958 6.23772C30.0981 6.16598 30.4152 6.19299 30.7011 6.31484C30.8456 6.38956 30.9732 6.49364 31.0756 6.62051C31.178 6.74737 31.2532 6.89424 31.2962 7.05182C32.5003 10.6924 33.7759 14.3081 35.2087 17.8572C36.6193 14.3182 37.9464 10.7451 39.19 7.13771C39.2375 6.96091 39.3207 6.79586 39.4345 6.65285C39.5483 6.50984 39.6901 6.39194 39.8512 6.30652C40.1552 6.17285 40.4961 6.15007 40.815 6.24213C41.1339 6.33419 41.4108 6.53531 41.598 6.81078C41.6878 6.99689 41.7344 7.20102 41.7344 7.40785C41.7344 7.61467 41.6878 7.81881 41.598 8.00491C40.2149 12.0556 38.6389 16.0231 36.9582 19.9491C36.8072 20.34 36.5528 20.682 36.2226 20.9382C35.9888 21.0941 35.7226 21.1942 35.4445 21.2308C35.1663 21.2675 34.8835 21.2397 34.6177 21.1496C34.3518 21.0595 34.11 20.9095 33.9106 20.711C33.7112 20.5125 33.5596 20.2709 33.4674 20.0045C31.794 15.9982 30.2731 11.9346 28.9047 7.81374C28.8307 7.63535 28.8025 7.44111 28.8228 7.2489C28.843 7.05669 28.911 6.87269 29.0204 6.71381Z" fill="white"/>
<path d="M55.6858 6.75216C56.7807 6.29212 57.9691 6.10212 59.1519 6.19804C60.2189 6.22409 61.2618 6.5225 62.1826 7.06524C63.0463 7.61508 63.7131 8.42739 64.0865 9.38425C64.392 10.1929 64.5551 11.0489 64.5686 11.9138C64.5686 12.468 64.5686 13.0221 64.5686 13.5762C64.5794 13.7279 64.5502 13.8797 64.4839 14.0164C64.4176 14.1531 64.3166 14.2698 64.1912 14.3547C63.8893 14.4919 63.5556 14.5427 63.2269 14.5016H55.2532C55.2532 15.3882 55.2312 16.3053 55.5508 17.1475C55.7546 17.7342 56.1511 18.2335 56.6749 18.5633C57.2776 18.8992 57.9588 19.0667 58.6477 19.0482C59.9659 19.0815 61.2736 18.8045 62.4664 18.2392C62.6286 18.1506 62.8116 18.1079 62.996 18.1157C63.1804 18.1235 63.3592 18.1815 63.5134 18.2835C63.698 18.4131 63.842 18.593 63.9284 18.8021C64.0148 19.0112 64.04 19.2408 64.0011 19.4638C63.9686 19.6196 63.9003 19.7656 63.8018 19.8901C63.7032 20.0147 63.5771 20.1144 63.4335 20.1814C62.2743 20.7578 61.0148 21.1022 59.725 21.1954C58.4907 21.3403 57.2398 21.2203 56.055 20.8435C55.0585 20.496 54.2023 19.8305 53.6166 18.9484C52.9855 17.9535 52.6377 16.8035 52.611 15.6237C52.5669 14.6401 52.611 13.6538 52.5889 12.6674C52.5426 11.5464 52.7303 10.4279 53.14 9.38425C53.6329 8.21861 54.5408 7.27999 55.6858 6.75216ZM55.8842 9.52278C55.2918 10.3872 55.2422 11.4788 55.2532 12.4929H61.9732C61.9865 12.0631 61.9737 11.6328 61.9347 11.2045C61.8437 10.3734 61.5407 9.5117 60.8739 8.98805C60.1134 8.36743 59.072 8.26492 58.1187 8.35081C57.2645 8.39514 56.3774 8.7664 55.8842 9.5117V9.52278Z" fill="white"/>
<path d="M2.7068 8.18484C3.62705 7.48111 4.82558 7.25115 5.96073 7.25946C7.1919 7.26927 8.38531 7.68813 9.35517 8.45082C9.36935 8.15149 9.48843 7.86686 9.69131 7.64734C9.87212 7.46052 10.1041 7.33203 10.3578 7.27825C10.6115 7.22447 10.8753 7.24783 11.1158 7.34535C11.325 7.42579 11.5055 7.56757 11.6337 7.75232C11.7619 7.93707 11.832 8.15628 11.8349 8.38156C11.8349 12.3731 11.8349 16.3674 11.8349 20.3645C11.8303 21.223 11.6851 22.0748 11.4051 22.8858C11.1058 23.7572 10.542 24.5121 9.79325 25.0441C8.82617 25.7229 7.6304 25.9473 6.48698 25.9999H5.71551C4.52263 25.9936 3.34111 25.7664 2.23015 25.3295C2.04642 25.2642 1.88465 25.1482 1.76333 24.9949C1.64202 24.8415 1.56605 24.657 1.5441 24.4622C1.53458 24.3066 1.56059 24.1509 1.62014 24.0069C1.67968 23.8629 1.77119 23.7346 1.88765 23.6316C2.00411 23.5287 2.14244 23.4539 2.29206 23.413C2.44168 23.3721 2.59862 23.3661 2.75089 23.3956C3.68879 23.6958 4.65914 23.8819 5.64112 23.9497C6.38507 24.0165 7.13331 23.8836 7.80949 23.5646C8.12855 23.3891 8.40993 23.1519 8.63738 22.8666C8.86484 22.5813 9.03388 22.2535 9.13475 21.9022C9.3965 21.1098 9.37446 20.262 9.36619 19.4363C8.87317 19.7671 8.33976 20.0325 7.77918 20.226C6.59113 20.5926 5.32489 20.6185 4.12299 20.3008C3.13969 20.0512 2.29057 19.4287 1.7535 18.5636C1.06193 17.4553 0.904885 16.0839 0.891108 14.79C0.891108 13.4379 0.811207 12.0609 1.14734 10.7366C1.36045 9.73121 1.91109 8.83018 2.7068 8.18484ZM4.17259 10.1769C3.53888 10.8834 3.40388 11.8836 3.39286 12.8007C3.39286 13.6762 3.37908 14.549 3.40663 15.4245C3.44245 16.1975 3.5747 17.0259 4.08166 17.641C4.51148 18.148 5.18376 18.3336 5.83123 18.389C6.46487 18.456 7.10542 18.3922 7.71371 18.2017C8.32199 18.0111 8.88523 17.6978 9.36895 17.2808C9.36895 15.0837 9.36895 12.8838 9.36895 10.6839C8.63529 9.88553 7.61672 9.41225 6.53657 9.3679C5.68796 9.32357 4.74843 9.51751 4.17259 10.1769Z" fill="white"/>
<path d="M25.3747 7.2793C26.2942 7.92263 27.0594 8.76408 27.6147 9.74238H25.7687C25.6559 9.74571 25.5433 9.73075 25.4353 9.69805C25.3882 9.58995 25.3665 9.47239 25.3719 9.35449C25.3747 8.65352 25.3719 7.96641 25.3747 7.2793Z" fill="#FC7B0A"/>
<path d="M22.852 9.03809C22.8568 8.97534 22.8769 8.91474 22.9104 8.86157C22.9439 8.80841 22.9898 8.76432 23.0442 8.73315C23.0986 8.70199 23.1597 8.6847 23.2223 8.68279C23.2848 8.68089 23.3469 8.69444 23.4031 8.72224C23.5518 8.7832 23.5959 8.94943 23.6455 9.08797C23.5849 9.20156 23.5381 9.34009 23.4113 9.39827C23.3516 9.42954 23.2846 9.44441 23.2173 9.44137C23.15 9.43833 23.0847 9.41749 23.028 9.38096C22.9713 9.34442 22.9251 9.29349 22.8942 9.23329C22.8633 9.17309 22.8488 9.10576 22.852 9.03809Z" fill="#FC7B0A"/>
<path d="M16.6249 9.12159C16.6818 9.09737 16.7438 9.08768 16.8053 9.09339C16.8669 9.0991 16.9261 9.12003 16.9776 9.15432C17.0292 9.1886 17.0715 9.23518 17.1008 9.28989C17.1301 9.34461 17.1455 9.40576 17.1456 9.46791C17.1463 9.5373 17.1275 9.60547 17.0913 9.66458C17.0551 9.72368 17.0031 9.77131 16.9412 9.802C16.8793 9.83268 16.8101 9.84517 16.7414 9.83802C16.6728 9.83088 16.6076 9.80439 16.5532 9.7616C16.503 9.7216 16.4638 9.6694 16.4391 9.60992C16.4145 9.55044 16.4054 9.48563 16.4125 9.42161C16.4197 9.35759 16.4429 9.29646 16.4801 9.24397C16.5172 9.19148 16.5671 9.14936 16.6249 9.12159Z" fill="#FC7B0A"/>
<path d="M19.045 11.116C19.1018 11.081 19.1668 11.0619 19.2334 11.0606C19.2999 11.0593 19.3657 11.0759 19.4238 11.1086C19.4818 11.1414 19.5302 11.1891 19.5639 11.2469C19.5975 11.3046 19.6153 11.3704 19.6153 11.4374C19.6153 11.5043 19.5975 11.5701 19.5639 11.6278C19.5302 11.6856 19.4818 11.7333 19.4238 11.7661C19.3657 11.7988 19.2999 11.8154 19.2334 11.8141C19.1668 11.8128 19.1018 11.7937 19.045 11.7587C18.9896 11.7256 18.9437 11.6785 18.9119 11.6222C18.88 11.5659 18.8633 11.5022 18.8633 11.4374C18.8633 11.3725 18.88 11.3088 18.9119 11.2525C18.9437 11.1962 18.9896 11.1491 19.045 11.116Z" fill="#FC7B0A"/>
<path d="M26.2412 14.4082C26.2605 14.2225 26.4672 14.2059 26.6132 14.2031H28.5419C28.3716 15.9412 27.6129 17.5678 26.3928 18.8107C26.3349 18.8661 26.2716 18.916 26.2109 18.9686C26.2109 17.8603 26.2302 16.7355 26.2109 15.6189C26.255 15.2144 26.1724 14.8099 26.2412 14.4082Z" fill="#FC7B0A"/>
<path d="M16.615 15.8351C16.6744 15.8029 16.7414 15.7875 16.8088 15.7904C16.8762 15.7933 16.9415 15.8145 16.998 15.8516C17.0544 15.8888 17.0998 15.9406 17.1294 16.0016C17.159 16.0625 17.1717 16.1304 17.1661 16.198C17.1638 16.2617 17.1451 16.3237 17.1119 16.3779C17.0786 16.4321 17.032 16.4768 16.9765 16.5075C16.921 16.5382 16.8585 16.5539 16.7952 16.5531C16.7318 16.5522 16.6697 16.5349 16.615 16.5028C16.5544 16.4709 16.5037 16.4229 16.4682 16.3641C16.4328 16.3052 16.4141 16.2377 16.4141 16.1689C16.4141 16.1001 16.4328 16.0326 16.4682 15.9738C16.5037 15.9149 16.5544 15.867 16.615 15.8351Z" fill="#FC7B0A"/>
<path d="M15.3477 18.4835C16.6151 18.4835 17.8797 18.4835 19.1471 18.4835C19.373 18.4835 19.6458 18.4198 19.7974 18.6331C19.8277 19.4117 19.8249 20.193 19.7974 20.9715C18.0749 20.6782 16.5044 19.8 15.3477 18.4835Z" fill="#FC7B0A"/>
</svg>
