<svg width="22" height="26" viewBox="0 0 22 26" fill="none" xmlns="http://www.w3.org/2000/svg">
<path d="M18.7682 3.2093C18.7682 3.2093 18.7682 3.17829 18.7682 3.2093C14.489 -1.06977 7.54319 -1.06977 3.26404 3.2093C-1.0151 7.48837 -1.0151 14.4651 3.26404 18.7442L10.1479 25.6279C10.3959 25.876 10.706 26 11.0161 26C11.3262 26 11.6363 25.876 11.8843 25.6279L18.7682 18.7132C23.0473 14.4341 23.0473 7.48837 18.7682 3.2093Z" fill="#F67B10"/>
<path d="M11.4095 15.7576C8.60167 15.7576 6.32031 13.4619 6.32031 10.6364C6.32031 7.81085 8.60167 5.51514 11.4095 5.51514C14.2173 5.51514 16.4987 7.81085 16.4987 10.6364C16.4987 13.4619 14.2173 15.7576 11.4095 15.7576Z" fill="#081539"/>
</svg>
