<svg width="93" height="37" viewBox="0 0 93 37" fill="none" xmlns="http://www.w3.org/2000/svg">
<path fill-rule="evenodd" clip-rule="evenodd" d="M25.8789 24.7903C25.8789 23.7237 26.1932 22.681 26.7821 21.7942C27.3709 20.9073 28.2079 20.2161 29.1872 19.808C30.1664 19.3998 31.2439 19.293 32.2835 19.5011C33.3231 19.7092 34.278 20.2228 35.0274 20.977C35.7769 21.7312 36.2873 22.6921 36.4941 23.7382C36.7009 24.7843 36.5948 25.8686 36.1891 26.854C35.7835 27.8394 35.0966 28.6817 34.2153 29.2743C33.334 29.8668 32.2979 30.1831 31.238 30.1831C29.8167 30.1831 28.4536 29.6149 27.4485 28.6036C26.4435 27.5922 25.8789 26.2205 25.8789 24.7903Z" fill="white"/>
<path d="M31.8278 7.3844C31.8278 8.02692 31.6385 8.65502 31.2837 9.18926C30.929 9.72349 30.4248 10.1399 29.8349 10.3858C29.245 10.6316 28.5959 10.696 27.9696 10.5706C27.3434 10.4453 26.7682 10.1359 26.3167 9.68155C25.8652 9.22721 25.5577 8.64836 25.4331 8.01818C25.3086 7.388 25.3725 6.73481 25.6168 6.14119C25.8612 5.54758 26.275 5.04021 26.8059 4.68324C27.3368 4.32627 27.9609 4.13574 28.5995 4.13574C29.4557 4.13574 30.2768 4.47801 30.8823 5.08725C31.4877 5.69649 31.8278 6.5228 31.8278 7.3844Z" fill="#F6A558"/>
<path d="M27.6172 24.8458C27.6172 24.1254 27.8295 23.4212 28.2273 22.8223C28.6251 22.2233 29.1905 21.7565 29.852 21.481C30.5135 21.2055 31.2413 21.1335 31.9434 21.2743C32.6455 21.4151 33.2904 21.7623 33.7964 22.2719C34.3024 22.7815 34.6468 23.4307 34.786 24.1374C34.9253 24.844 34.8532 25.5763 34.5788 26.2417C34.3044 26.9071 33.84 27.4756 33.2445 27.8754C32.6489 28.2752 31.9489 28.4882 31.233 28.4875C30.7579 28.4875 30.2874 28.3933 29.8485 28.2103C29.4096 28.0272 29.0109 27.7589 28.6751 27.4207C28.3393 27.0825 28.073 26.681 27.8915 26.2392C27.71 25.7974 27.6168 25.3239 27.6172 24.8458Z" fill="#F6A558"/>
<path d="M34.8237 14.8786C34.8237 15.5549 34.6243 16.216 34.2507 16.7783C33.8771 17.3405 33.3461 17.7785 32.7249 18.0369C32.1038 18.2953 31.4204 18.3624 30.7613 18.2298C30.1023 18.0971 29.4971 17.7706 29.0226 17.2917C28.548 16.8128 28.2253 16.2029 28.0953 15.5393C27.9654 14.8757 28.034 14.1882 28.2926 13.5639C28.5511 12.9396 28.9879 12.4065 29.5477 12.0322C30.1075 11.6578 30.7651 11.459 31.4372 11.461C32.3362 11.4635 33.1976 11.8247 33.8324 12.4654C34.4672 13.106 34.8237 13.9738 34.8237 14.8786Z" fill="#F6A558"/>
<path d="M25.052 3.07317C25.0527 3.68176 24.8739 4.27687 24.5383 4.78322C24.2028 5.28956 23.7255 5.68437 23.167 5.91772C22.6084 6.15106 21.9936 6.21245 21.4003 6.09411C20.807 5.97578 20.262 5.68303 19.8341 5.25292C19.4062 4.8228 19.1147 4.27464 18.9965 3.67779C18.8783 3.08094 18.9386 2.4622 19.1699 1.89987C19.4012 1.33754 19.7931 0.856881 20.2959 0.518696C20.7987 0.180511 21.39 3.39312e-07 21.9948 0C22.805 -4.54586e-07 23.5822 0.323675 24.1554 0.899912C24.7287 1.47615 25.0512 2.25781 25.052 3.07317Z" fill="#F6A558"/>
<path d="M7.50644 27.9351C7.50708 28.3413 7.38796 28.7386 7.16415 29.0766C6.94034 29.4147 6.62191 29.6783 6.24915 29.8342C5.87638 29.9901 5.46604 30.0313 5.07004 29.9524C4.67405 29.8735 4.31019 29.6783 4.02452 29.3913C3.73886 29.1043 3.54421 28.7384 3.46522 28.3401C3.38623 27.9417 3.42645 27.5288 3.58078 27.1534C3.73512 26.7781 3.99663 26.4572 4.33223 26.2315C4.66783 26.0058 5.06243 25.8853 5.46611 25.8853C5.7339 25.8848 5.99914 25.9375 6.24666 26.0404C6.49419 26.1432 6.71914 26.2941 6.90864 26.4845C7.09815 26.6749 7.24849 26.901 7.35106 27.1499C7.45364 27.3988 7.50644 27.6656 7.50644 27.9351Z" fill="#F6A558"/>
<path d="M5.26016 23.0265C5.2608 23.4662 5.13183 23.8961 4.88958 24.262C4.64733 24.6279 4.30268 24.9132 3.89924 25.0819C3.4958 25.2506 3.0517 25.295 2.62314 25.2097C2.19457 25.1243 1.80081 24.9129 1.49166 24.6022C1.18252 24.2916 0.971884 23.8957 0.886418 23.4645C0.800952 23.0334 0.844493 22.5864 1.01153 22.1802C1.17857 21.7739 1.4616 21.4267 1.82481 21.1823C2.18801 20.938 2.61508 20.8076 3.05195 20.8076C3.63705 20.8076 4.19822 21.0413 4.61225 21.4573C5.02628 21.8734 5.2593 22.4377 5.26016 23.0265Z" fill="#F6A558"/>
<path d="M27.0519 33.6106C27.0519 33.8471 26.9822 34.0782 26.8516 34.2748C26.7211 34.4714 26.5356 34.6247 26.3185 34.7151C26.1014 34.8056 25.8625 34.8293 25.632 34.7832C25.4016 34.737 25.1899 34.6232 25.0238 34.456C24.8576 34.2888 24.7445 34.0758 24.6986 33.8438C24.6528 33.6119 24.6763 33.3715 24.7662 33.1531C24.8561 32.9346 25.0084 32.7479 25.2038 32.6165C25.3992 32.4852 25.6289 32.415 25.8638 32.415C26.1789 32.415 26.4811 32.541 26.7039 32.7652C26.9267 32.9894 27.0519 33.2935 27.0519 33.6106Z" fill="#F6A558"/>
<path d="M23.562 34.8516C23.562 35.1222 23.4822 35.3868 23.3328 35.6117C23.1833 35.8367 22.9708 36.012 22.7223 36.1154C22.4737 36.2189 22.2003 36.2458 21.9365 36.1927C21.6728 36.1397 21.4306 36.0091 21.2407 35.8175C21.0507 35.6259 20.9216 35.3819 20.8695 35.1164C20.8174 34.8509 20.8448 34.5758 20.9481 34.3259C21.0515 34.0761 21.2262 33.8627 21.4501 33.7128C21.6741 33.5629 21.9372 33.4832 22.2061 33.4839C22.3845 33.4839 22.561 33.5193 22.7258 33.5881C22.8905 33.6568 23.0401 33.7576 23.166 33.8847C23.292 34.0117 23.3918 34.1625 23.4598 34.3284C23.5277 34.4943 23.5625 34.6721 23.562 34.8516Z" fill="#F6A558"/>
<path d="M6.61389 11.7667C6.61389 12.2737 6.4645 12.7692 6.18461 13.1907C5.90473 13.6122 5.50691 13.9407 5.04148 14.1347C4.57604 14.3287 4.06389 14.3795 3.56978 14.2806C3.07568 14.1817 2.62181 13.9376 2.26558 13.5791C1.90935 13.2207 1.66676 12.764 1.56848 12.2668C1.47019 11.7696 1.52063 11.2542 1.71342 10.7859C1.90621 10.3175 2.23269 9.91721 2.65157 9.63558C3.07046 9.35394 3.56293 9.20361 4.06671 9.20361C4.74227 9.20361 5.39015 9.47365 5.86784 9.95433C6.34553 10.435 6.61389 11.0869 6.61389 11.7667Z" fill="#F6A558"/>
<path d="M19.5657 35.1569C19.5664 35.4608 19.4775 35.7581 19.3102 36.0112C19.1429 36.2642 18.9049 36.4617 18.6261 36.5786C18.3473 36.6955 18.0403 36.7265 17.744 36.6679C17.4477 36.6092 17.1753 36.4635 16.9613 36.249C16.7472 36.0346 16.6012 35.7611 16.5417 35.4631C16.4821 35.1652 16.5117 34.8561 16.6267 34.5751C16.7417 34.2941 16.9369 34.0537 17.1877 33.8843C17.4384 33.7149 17.7335 33.6242 18.0355 33.6235C18.236 33.6231 18.4347 33.6624 18.6201 33.7393C18.8055 33.8161 18.9741 33.9289 19.1162 34.0713C19.2583 34.2137 19.3711 34.3828 19.4483 34.5691C19.5254 34.7554 19.5653 34.9551 19.5657 35.1569Z" fill="#F6A558"/>
<path d="M10.8283 31.6744C10.8289 32.0467 10.7197 32.4108 10.5146 32.7206C10.3095 33.0304 10.0176 33.272 9.67587 33.4148C9.33418 33.5576 8.95808 33.5951 8.59519 33.5226C8.23229 33.4501 7.89893 33.2709 7.63733 33.0077C7.37572 32.7444 7.19763 32.409 7.1256 32.0438C7.05358 31.6786 7.09087 31.3001 7.23275 30.9563C7.37462 30.6125 7.61471 30.3187 7.92259 30.1123C8.23048 29.9058 8.59232 29.796 8.96229 29.7966C9.45718 29.7966 9.9318 29.9945 10.2817 30.3466C10.6317 30.6988 10.8283 31.1764 10.8283 31.6744Z" fill="#F6A558"/>
<path d="M17.4989 3.45654C17.4989 4.03096 17.3296 4.59247 17.0125 5.07008C16.6953 5.54769 16.2446 5.91994 15.7172 6.13976C15.1898 6.35958 14.6095 6.4171 14.0497 6.30503C13.4898 6.19297 12.9755 5.91636 12.5719 5.51019C12.1683 5.10402 11.8934 4.58652 11.782 4.02314C11.6707 3.45976 11.7278 2.87581 11.9463 2.34512C12.1647 1.81443 12.5346 1.36084 13.0093 1.04171C13.4839 0.72258 14.0419 0.552246 14.6127 0.552246C15.3782 0.552246 16.1123 0.858234 16.6535 1.40289C17.1948 1.94756 17.4989 2.68628 17.4989 3.45654Z" fill="#F6A558"/>
<path d="M10.7022 6.67253C10.7028 7.21381 10.5439 7.74311 10.2454 8.19343C9.94699 8.64376 9.52249 8.99486 9.02565 9.20229C8.52882 9.40973 7.98199 9.46417 7.4544 9.35873C6.9268 9.25329 6.44215 8.99271 6.0618 8.60997C5.68144 8.22722 5.42248 7.73953 5.3177 7.20862C5.21292 6.67772 5.26702 6.12746 5.47316 5.62751C5.6793 5.12756 6.02821 4.70038 6.47573 4.40007C6.92324 4.09975 7.44924 3.93979 7.98714 3.94043C8.70696 3.94129 9.39705 4.22941 9.90604 4.7416C10.415 5.25378 10.7014 5.9482 10.7022 6.67253Z" fill="#F6A558"/>
<path d="M4.91621 17.64C4.91621 18.1129 4.77686 18.5752 4.51577 18.9684C4.25469 19.3616 3.88359 19.668 3.44942 19.849C3.01525 20.03 2.5375 20.0773 2.07659 19.9851C1.61568 19.8928 1.1923 19.6651 0.86 19.3307C0.5277 18.9963 0.301401 18.5703 0.209719 18.1065C0.118038 17.6427 0.165092 17.1619 0.344932 16.725C0.524771 16.2881 0.829319 15.9147 1.22006 15.652C1.61081 15.3893 2.0702 15.249 2.54014 15.249C3.17005 15.2499 3.77392 15.5021 4.21933 15.9503C4.66475 16.3985 4.91536 17.0061 4.91621 17.64Z" fill="#F6A558"/>
<path d="M14.9548 34.1824C14.9548 34.5203 14.8552 34.8507 14.6686 35.1317C14.4821 35.4127 14.2168 35.6317 13.9066 35.761C13.5963 35.8904 13.2548 35.9242 12.9254 35.8583C12.596 35.7923 12.2934 35.6296 12.056 35.3906C11.8185 35.1517 11.6567 34.8472 11.5912 34.5157C11.5257 34.1843 11.5593 33.8407 11.6879 33.5285C11.8164 33.2162 12.034 32.9494 12.3133 32.7616C12.5925 32.5739 12.9209 32.4736 13.2567 32.4736C13.7071 32.4736 14.139 32.6537 14.4575 32.9741C14.7759 33.2946 14.9548 33.7292 14.9548 34.1824Z" fill="#F6A558"/>
<path d="M25.344 29.3513C25.3514 29.4768 25.3333 29.6026 25.2906 29.7208C25.248 29.839 25.1818 29.9472 25.096 30.0387C25.0103 30.1303 24.9069 30.2032 24.7922 30.2531C24.6774 30.3029 24.5538 30.3286 24.4288 30.3286C24.3038 30.3286 24.1801 30.3029 24.0654 30.2531C23.9506 30.2032 23.8472 30.1303 23.7615 30.0387C23.6758 29.9472 23.6096 29.839 23.5669 29.7208C23.5243 29.6026 23.5061 29.4768 23.5135 29.3513V23.3771C23.5135 22.0192 23.1326 21.1031 21.5119 21.1031C20.311 21.1031 19.3877 21.5904 18.9648 22.4383V29.3513C18.9648 29.5986 18.8672 29.8357 18.6934 30.0106C18.5196 30.1854 18.284 30.2836 18.0382 30.2836C17.7925 30.2836 17.5568 30.1854 17.3831 30.0106C17.2093 29.8357 17.1117 29.5986 17.1117 29.3513V22.2044C17.1117 21.3793 16.9018 21.0609 16.466 20.8692C16.3526 20.815 16.2574 20.7286 16.192 20.6207C16.1267 20.5128 16.094 20.388 16.098 20.2617C16.098 19.69 16.4983 19.4561 17.0052 19.4561C17.4206 19.4767 17.8191 19.6278 18.1448 19.8882C18.354 20.0787 18.5127 20.3187 18.6064 20.5866C19.3425 19.8037 20.3982 19.3164 21.8929 19.3164C24.566 19.3164 25.344 20.9894 25.344 23.1952V29.3513Z" fill="white"/>
<path d="M42.5441 21.2365C42.2024 21.1376 41.847 21.0948 41.4917 21.1098C40.6491 21.1098 39.4933 21.4347 39.1543 23.0363V29.3516C39.1543 29.5989 39.0567 29.836 38.883 30.0109C38.7092 30.1857 38.4735 30.2839 38.2278 30.2839C37.9821 30.2839 37.7464 30.1857 37.5726 30.0109C37.3989 29.836 37.3013 29.5989 37.3013 29.3516V22.2046C37.3013 21.3795 37.0914 21.0611 36.6556 20.8694C36.5442 20.8117 36.4515 20.7234 36.388 20.6147C36.3246 20.506 36.2931 20.3814 36.2972 20.2554C36.2988 20.1408 36.3242 20.0277 36.3717 19.9235C36.4193 19.8193 36.488 19.7263 36.5735 19.6504C36.6589 19.5745 36.7592 19.5175 36.8678 19.4829C36.9765 19.4484 37.0912 19.4371 37.2044 19.4498C37.3029 19.4461 37.4014 19.4537 37.4982 19.4725C37.8265 19.5444 38.1299 19.7025 38.3778 19.9308C38.6256 20.159 38.8089 20.4493 38.909 20.772C39.2321 20.3021 39.6677 19.9219 40.1756 19.6664C40.6834 19.4108 41.2471 19.2883 41.8145 19.3101C42.2978 19.286 42.7802 19.3726 43.2253 19.5635C43.4104 19.6646 43.5518 19.831 43.6221 20.0308C43.6925 20.2306 43.6868 20.4495 43.6063 20.6453C43.5356 20.8602 43.387 21.0404 43.1902 21.15C42.9933 21.2596 42.7626 21.2905 42.5441 21.2365Z" fill="white"/>
<path d="M59.1996 29.3515C59.1996 29.5988 59.102 29.836 58.9282 30.0108C58.7545 30.1857 58.5188 30.2839 58.273 30.2839C58.0273 30.2839 57.7916 30.1857 57.6179 30.0108C57.4441 29.836 57.3465 29.5988 57.3465 29.3515V23.3774C57.3465 22.0194 56.9882 21.1033 55.4095 21.1033C54.1666 21.1033 53.3885 21.6751 52.9688 22.4612C52.9882 22.7146 53.0108 22.9485 53.0108 23.2019V29.3743C53.0108 29.6216 52.9132 29.8587 52.7394 30.0336C52.5657 30.2084 52.33 30.3066 52.0843 30.3066C51.8385 30.3066 51.6029 30.2084 51.4291 30.0336C51.2554 29.8587 51.1577 29.6216 51.1577 29.3743V23.3774C51.1577 22.0194 50.7994 21.1033 49.2207 21.1033C48.0617 21.1033 47.2417 21.5906 46.8188 22.3346V29.3515C46.8188 29.5988 46.7212 29.836 46.5474 30.0108C46.3737 30.1857 46.138 30.2839 45.8923 30.2839C45.6465 30.2839 45.4109 30.1857 45.2371 30.0108C45.0633 29.836 44.9657 29.5988 44.9657 29.3515V22.2046C44.9657 21.3795 44.7559 21.0611 44.3201 20.8694C44.2074 20.8133 44.1135 20.7253 44.0499 20.6162C43.9862 20.5072 43.9556 20.3818 43.9617 20.2554C43.9617 19.6837 44.362 19.4498 44.8689 19.4498C45.2818 19.4736 45.677 19.6269 45.9988 19.8884C46.1745 20.0764 46.3243 20.2872 46.4443 20.5153C47.1804 19.7746 48.1715 19.3296 49.6243 19.3296C51.077 19.3296 51.981 19.8819 52.4652 20.7265C53.2013 19.8591 54.257 19.3296 55.7937 19.3296C58.4248 19.3296 59.2028 20.9182 59.2028 23.1857L59.1996 29.3515Z" fill="white"/>
<path d="M67.8215 30.2839C67.4072 30.2796 67.0093 30.1211 66.7044 29.8389C66.5435 29.7014 66.408 29.5365 66.3041 29.3516C65.5097 29.9475 64.5476 30.274 63.5568 30.2839C60.7965 30.2839 59.6602 28.7571 59.6602 26.0022V24.0757C59.6602 21.2363 60.6513 19.3294 63.4309 19.3294C64.3393 19.3202 65.2258 19.61 65.9555 20.1545V15.7266C65.9589 15.4824 66.0583 15.2496 66.232 15.0791C66.4056 14.9086 66.6394 14.8143 66.882 14.8169C67.0012 14.8156 67.1195 14.8383 67.2299 14.8835C67.3404 14.9287 67.4407 14.9956 67.5252 15.0803C67.6096 15.165 67.6765 15.2657 67.7218 15.3767C67.7671 15.4877 67.79 15.6066 67.7892 15.7266V27.529C67.7892 28.377 67.9344 28.6953 68.3767 28.8643C68.487 28.9222 68.5782 29.011 68.6395 29.12C68.7008 29.2289 68.7295 29.3533 68.7222 29.4783C68.7222 30.05 68.3251 30.2839 67.8215 30.2839ZM65.9458 21.9153C65.3711 21.3145 64.5852 20.9646 63.7569 20.9407C62.1428 20.9407 61.4971 21.9576 61.4971 23.7996V26.1094C61.4971 27.8052 62.1073 28.6726 63.7925 28.6726C64.5903 28.6411 65.3511 28.3257 65.9393 27.7824L65.9458 21.9153Z" fill="white"/>
<path d="M76.9147 30.2839C76.5091 30.2748 76.1209 30.1165 75.8235 29.8389C75.6183 29.6729 75.4712 29.4452 75.4038 29.1891C74.6452 30.0598 73.3603 30.2709 72.4531 30.2709C69.8446 30.2709 68.7695 28.913 68.7695 27.1555V26.9865C68.7695 25.229 69.9705 23.9133 72.6436 23.9133H75.0455V23.4195C75.0455 21.7237 74.6452 20.8758 72.876 20.8758C72.1265 20.8586 71.3858 21.0413 70.7292 21.4053C69.7606 21.9153 69.002 20.6224 69.8865 20.0701C70.83 19.5381 71.9022 19.2816 72.9825 19.3294C75.9914 19.3294 76.876 20.7913 76.876 23.5884V27.5291C76.876 28.377 77.0664 28.6304 77.4667 28.8643C77.5781 28.922 77.6709 29.0103 77.7343 29.119C77.7978 29.2277 77.8292 29.3523 77.8251 29.4783C77.8219 30.05 77.4377 30.2839 76.9147 30.2839ZM75.0422 25.3687H72.8308C71.0617 25.3687 70.6 26.1744 70.6 27.019V27.1912C70.6 28.0391 71.0843 28.8415 72.7662 28.8415C74.177 28.8415 75.0422 28.1236 75.0422 26.6194V25.3687Z" fill="white"/>
<path d="M82.6751 30.1572H82.0295C79.1239 30.1572 78.3653 28.3542 78.3653 25.5799V21.0317H77.7616C77.5538 21.0294 77.3549 20.9469 77.2059 20.8012C77.0569 20.6555 76.9692 20.4577 76.9609 20.2488C76.9713 20.0398 77.0594 19.8422 77.2077 19.6954C77.356 19.5486 77.5537 19.4632 77.7616 19.4562H78.3717V17.2893C78.3743 17.0428 78.4727 16.8071 78.6459 16.6328C78.8191 16.4585 79.0533 16.3595 79.2983 16.3569C79.5409 16.3604 79.7722 16.4604 79.9417 16.6352C80.1111 16.8099 80.2048 17.0452 80.2022 17.2893V19.4724H82.1618C82.3729 19.4766 82.5741 19.5628 82.7234 19.713C82.8727 19.8632 82.9583 20.0657 82.9625 20.2781C82.9574 20.488 82.8707 20.6877 82.721 20.834C82.5713 20.9804 82.3706 21.0619 82.1618 21.061H80.2022V25.5571C80.2022 27.6558 80.5606 28.4614 82.2458 28.4614H82.6655C82.8889 28.4614 83.1033 28.5508 83.2613 28.7098C83.4193 28.8688 83.5081 29.0845 83.5081 29.3093C83.5081 29.5342 83.4193 29.7499 83.2613 29.9089C83.1033 30.0679 82.8889 30.1572 82.6655 30.1572H82.6751Z" fill="white"/>
<path d="M91.6757 30.2839C91.2682 30.2749 90.878 30.1166 90.5781 29.8389C90.374 29.6719 90.2272 29.4446 90.1584 29.1891C89.3997 30.0598 88.1148 30.2709 87.2109 30.2709C84.5992 30.2709 83.5273 28.913 83.5273 27.1555V26.9865C83.5273 25.229 84.7251 23.9133 87.4014 23.9133H89.8V23.4195C89.8 21.7237 89.3997 20.8758 87.6306 20.8758C86.8812 20.8595 86.1407 21.0421 85.4837 21.4053C84.5152 21.9153 83.7566 20.6224 84.6411 20.0701C85.5845 19.5381 86.6567 19.2816 87.7371 19.3294C90.7492 19.3294 91.6338 20.7913 91.6338 23.5884V27.5291C91.6338 28.377 91.821 28.6304 92.2213 28.8643C92.334 28.9204 92.4279 29.0084 92.4915 29.1175C92.5552 29.2265 92.5858 29.3519 92.5797 29.4783C92.5797 30.05 92.2019 30.2839 91.6757 30.2839ZM89.8 25.3687H87.5886C85.8195 25.3687 85.3578 26.1744 85.3578 27.019V27.1912C85.3578 28.0391 85.8421 28.8415 87.5273 28.8415C88.9381 28.8415 89.7871 28.1236 89.7871 26.6194L89.8 25.3687Z" fill="white"/>
</svg>
