<svg width="20" height="16" viewBox="0 0 20 16" fill="none" xmlns="http://www.w3.org/2000/svg">
<path fill-rule="evenodd" clip-rule="evenodd" d="M7.17189 0H13.1344C16.7001 0.00413301 19.5896 2.91186 19.5938 6.5C19.5938 9.916 16.9603 12.725 13.6313 12.981V15.5C13.6313 15.6894 13.5249 15.8625 13.3566 15.9472C13.1883 16.0319 12.9868 16.0136 12.8363 15.9L9.1261 13.1C8.94921 12.9665 8.96412 13 7.17189 13C3.60448 13 0.712524 10.0898 0.712524 6.5C0.712524 2.91015 3.60448 0 7.17189 0Z" fill="#1443B8"/>
<g clip-path="url(#clip0)">
<path d="M9.63751 5.15252C9.67412 5.09204 9.69605 5.02195 9.70116 4.94911C9.70627 4.87627 9.69438 4.8032 9.66666 4.73706L9.26424 3.78926C9.17648 3.57863 9.0892 3.37064 9.00238 3.16528C8.98249 3.11449 8.94946 3.07154 8.90756 3.04198C8.86567 3.01241 8.81682 2.99759 8.76733 2.99942H7.4557L6.67578 3.00837L8.17733 6.45627C8.20644 6.52175 8.25028 6.57761 8.30452 6.61835C8.35876 6.65909 8.42153 6.68331 8.48667 6.68863C8.5518 6.69394 8.61705 6.68016 8.67599 6.64866C8.73493 6.61715 8.78552 6.56899 8.8228 6.50893L9.63751 5.15252Z" fill="white"/>
<path d="M10.6694 5.15325C10.6331 5.09263 10.6114 5.02247 10.6065 4.94963C10.6017 4.87679 10.6138 4.80379 10.6417 4.73779L11.0441 3.78999C11.1316 3.57937 11.2195 3.37348 11.306 3.16602C11.3259 3.11522 11.3589 3.07227 11.4008 3.04271C11.4427 3.01314 11.4915 2.99832 11.541 3.00015H12.8513L13.634 3.0091L12.1296 6.45701C12.1005 6.52249 12.0567 6.57834 12.0024 6.61909C11.9482 6.65983 11.8854 6.68405 11.8203 6.68936C11.7552 6.69467 11.6899 6.6809 11.631 6.64939C11.572 6.61788 11.5214 6.56973 11.4842 6.50966L10.6694 5.15325Z" fill="white"/>
<path d="M8.82391 7.29362L11.5431 7.25781C11.579 7.25836 11.6142 7.26899 11.6454 7.28874C11.6767 7.30849 11.703 7.33672 11.722 7.37084C11.741 7.40496 11.7521 7.44388 11.7542 7.48402C11.7562 7.52417 11.7493 7.56425 11.7339 7.6006L10.404 10.8621C10.3882 10.903 10.3621 10.9379 10.329 10.9626C10.2959 10.9873 10.2571 11.0007 10.2173 11.0012C10.1775 11.0017 10.1384 10.9892 10.1048 10.9654C10.0712 10.9416 10.0445 10.9073 10.0279 10.8668L8.63962 7.64115C8.62366 7.60515 8.61599 7.56524 8.61734 7.52508C8.61868 7.48491 8.62899 7.44576 8.64731 7.4112C8.66564 7.37664 8.6914 7.34777 8.72225 7.32723C8.7531 7.30669 8.78805 7.29514 8.82391 7.29362Z" fill="white"/>
</g>
<defs>
<clipPath id="clip0">
<rect width="6.9563" height="8" fill="white" transform="translate(6.67578 3)"/>
</clipPath>
</defs>
</svg>
