<svg width="98" height="20" viewBox="0 0 98 20" fill="none" xmlns="http://www.w3.org/2000/svg">
<path d="M8.67992 19.6972C8.47188 19.691 8.27057 19.6216 8.10245 19.4981C7.93434 19.3746 7.80729 19.2028 7.738 19.0053C6.72853 16.8583 5.54664 14.7978 4.20409 12.8443L2.37526 14.7608V18.5106C2.3803 18.6626 2.35529 18.8141 2.3017 18.9563C2.24811 19.0984 2.16699 19.2285 2.06306 19.3389C1.95912 19.4492 1.83444 19.5378 1.69625 19.5993C1.55805 19.6608 1.4091 19.694 1.25802 19.6972C0.956776 19.6855 0.672462 19.5539 0.467502 19.3315C0.262542 19.109 0.153689 18.8138 0.164842 18.5106V1.15886C0.159801 1.01023 0.184203 0.862085 0.236626 0.723043C0.28905 0.584001 0.368446 0.456848 0.470189 0.348991C0.571933 0.241134 0.693989 0.154731 0.829246 0.0948144C0.964504 0.0348982 1.11026 0.00266752 1.25802 1.26038e-07C1.40767 -7.11801e-05 1.55582 0.0301144 1.69366 0.088765C1.8315 0.147416 1.95622 0.233336 2.06043 0.341425C2.16464 0.449515 2.2462 0.577571 2.30029 0.717991C2.35437 0.858411 2.37986 1.00833 2.37526 1.15886V11.9276L7.84113 6.04683C7.93105 5.95006 8.0402 5.87341 8.16149 5.82187C8.28277 5.77032 8.41348 5.74503 8.54511 5.74764C8.67674 5.75025 8.80635 5.7807 8.92552 5.83702C9.04469 5.89333 9.15076 5.97424 9.23682 6.0745C9.42697 6.27415 9.53312 6.53999 9.53312 6.81652C9.53312 7.09305 9.42697 7.35889 9.23682 7.55854L5.75447 11.2531C7.26625 13.4208 8.59333 15.7133 9.72153 18.1059C9.79826 18.2793 9.8304 18.4693 9.815 18.6585C9.7996 18.8476 9.73715 19.0298 9.6334 19.1883C9.52965 19.3468 9.38794 19.4765 9.22132 19.5654C9.05469 19.6543 8.86851 19.6997 8.67992 19.6972Z" fill="white"/>
<path d="M21.8947 19.697C21.3869 19.6647 20.9038 19.4654 20.5196 19.1297C20.2329 18.8575 20.023 18.5138 19.9112 18.1334C19.0208 19.1055 17.8004 19.697 15.9785 19.697C12.8261 19.697 11.8533 17.6457 11.8533 14.7883V6.93576C11.8449 6.7845 11.8673 6.6331 11.919 6.49083C11.9708 6.34855 12.0508 6.2184 12.1543 6.10833C12.2577 5.99826 12.3824 5.91058 12.5207 5.85066C12.659 5.79073 12.8079 5.75983 12.9585 5.75983C13.109 5.75983 13.258 5.79073 13.3963 5.85066C13.5346 5.91058 13.6593 5.99826 13.7627 6.10833C13.8662 6.2184 13.9462 6.34855 13.998 6.49083C14.0497 6.6331 14.0721 6.7845 14.0637 6.93576V14.5704C14.0637 16.3242 14.5209 17.4589 16.4701 17.4589C18.0204 17.4589 19.0105 16.767 19.5433 15.6497V6.93576C19.5349 6.78265 19.5576 6.62941 19.61 6.48541C19.6624 6.34142 19.7435 6.20969 19.8482 6.0983C19.9529 5.9869 20.0791 5.89817 20.2191 5.83752C20.3591 5.77688 20.5099 5.74561 20.6623 5.74561C20.8147 5.74561 20.9655 5.77688 21.1054 5.83752C21.2454 5.89817 21.3716 5.9869 21.4764 6.0983C21.5811 6.20969 21.6621 6.34142 21.7146 6.48541C21.767 6.62941 21.7897 6.78265 21.7812 6.93576V16.1893C21.7812 17.324 22.0597 17.5938 22.5685 17.8913C22.7042 17.9706 22.8154 18.0864 22.8895 18.2257C22.9635 18.365 22.9976 18.5223 22.9879 18.68C22.9879 19.3995 22.51 19.697 21.8947 19.697Z" fill="white"/>
<path d="M43.0626 18.5106C43.0711 18.6637 43.0484 18.817 42.996 18.961C42.9436 19.105 42.8625 19.2367 42.7578 19.3481C42.653 19.4595 42.5268 19.5482 42.3869 19.6088C42.2469 19.6695 42.0961 19.7008 41.9437 19.7008C41.7913 19.7008 41.6405 19.6695 41.5005 19.6088C41.3606 19.5482 41.2343 19.4595 41.1296 19.3481C41.0249 19.2367 40.9438 19.105 40.8914 18.961C40.839 18.817 40.8163 18.6637 40.8247 18.5106V10.9003C40.8247 9.17066 40.3916 7.9876 38.4871 7.9876C37.8811 7.95295 37.2783 8.09846 36.7538 8.406C36.2294 8.71355 35.8064 9.16955 35.5376 9.71722C35.5651 10.0424 35.5892 10.3399 35.5892 10.6616V18.5141C35.5892 18.8122 35.4715 19.0982 35.2619 19.309C35.0524 19.5199 34.7682 19.6383 34.4719 19.6383C34.1756 19.6383 33.8914 19.5199 33.6819 19.309C33.4724 19.0982 33.3547 18.8122 33.3547 18.5141V10.9037C33.3547 9.17412 32.9215 7.99106 31.0136 7.99106C29.618 7.99106 28.6245 8.61026 28.1191 9.55464V18.5141C28.1276 18.6672 28.1049 18.8204 28.0525 18.9644C28 19.1084 27.919 19.2401 27.8143 19.3515C27.7095 19.4629 27.5833 19.5517 27.4433 19.6123C27.3034 19.6729 27.1526 19.7042 27.0002 19.7042C26.8478 19.7042 26.697 19.6729 26.557 19.6123C26.417 19.5517 26.2908 19.4629 26.1861 19.3515C26.0814 19.2401 26.0003 19.1084 25.9479 18.9644C25.8955 18.8204 25.8728 18.6672 25.8812 18.5141V9.41627C25.8812 8.37849 25.6268 7.95993 25.094 7.71778C24.9573 7.64021 24.8445 7.52618 24.7681 7.38823C24.6916 7.25029 24.6545 7.0938 24.6608 6.93599C24.6608 6.20609 25.1456 5.89822 25.754 5.89822C26.2616 5.93152 26.7444 6.13073 27.1291 6.46553C27.3433 6.70597 27.5237 6.97484 27.6654 7.26462C28.5523 6.32025 29.7486 5.75293 31.5018 5.75293C33.255 5.75293 34.3482 6.44478 34.9395 7.53444C35.8298 6.42748 37.0983 5.75293 38.9546 5.75293C42.131 5.75293 43.0798 7.77659 43.0798 10.6651L43.0626 18.5106Z" fill="white"/>
<path d="M70.2947 19.6971C69.7986 19.6856 69.3259 19.4825 68.9746 19.1298C68.724 18.925 68.5426 18.647 68.4555 18.3342C67.5377 19.4412 65.9907 19.7179 64.8976 19.7179C61.7452 19.7179 60.4492 17.9883 60.4492 15.7536V15.5356C60.4492 13.2975 61.8965 11.6232 65.1244 11.6232H68.0224V10.9556C68.0224 8.79697 67.5377 7.71767 65.4029 7.71767C64.492 7.70302 63.5948 7.94249 62.8109 8.40953C62.5871 8.53426 62.3239 8.56665 62.0769 8.49987C61.8298 8.43309 61.6182 8.27237 61.4867 8.05159C61.3551 7.83082 61.3139 7.56726 61.3718 7.31651C61.4296 7.06576 61.582 6.84743 61.7968 6.70757C62.8109 6.03301 64.1069 5.76318 65.5335 5.76318C69.1671 5.76318 70.2328 7.62773 70.2328 11.1873V16.1894C70.2328 17.2687 70.4631 17.5939 70.9444 17.8914C71.0827 17.9689 71.1967 18.0839 71.2732 18.2233C71.3498 18.3628 71.386 18.521 71.3775 18.6801C71.3775 19.3996 70.9203 19.6971 70.2947 19.6971ZM68.0327 13.4393H65.3651C63.2303 13.4393 62.67 14.4771 62.67 15.5426V15.757C62.67 16.8363 63.2544 17.8637 65.2894 17.8637C67.0083 17.8637 68.0396 16.947 68.0396 15.0306L68.0327 13.4393Z" fill="white"/>
<path d="M83.093 19.6971C82.597 19.6849 82.1246 19.4819 81.7729 19.1298C81.5261 18.9235 81.3484 18.6457 81.2641 18.3342C80.3497 19.4412 78.7993 19.7179 77.7061 19.7179C74.5538 19.7179 73.2578 17.9883 73.2578 15.7536V15.5356C73.2578 13.2975 74.7085 11.6232 77.933 11.6232H80.831V10.9556C80.831 8.79697 80.3497 7.71767 78.2149 7.71767C77.3039 7.70211 76.4065 7.94164 75.6229 8.40953C75.3986 8.54715 75.1292 8.58947 74.8739 8.52719C74.6186 8.46491 74.3984 8.30313 74.2616 8.07744C74.1248 7.85174 74.0828 7.58062 74.1447 7.32372C74.2066 7.06682 74.3673 6.84518 74.5916 6.70757C75.6229 6.03301 76.9052 5.76318 78.3284 5.76318C81.962 5.76318 83.0276 7.62773 83.0276 11.1873V16.1894C83.0276 17.2687 83.258 17.5939 83.7392 17.8914C83.8807 17.9664 83.9979 18.0804 84.077 18.2201C84.1562 18.3599 84.1941 18.5195 84.1861 18.6801C84.1861 19.3996 83.7289 19.6971 83.093 19.6971ZM80.831 13.4393H78.1634C76.0286 13.4393 75.4682 14.4771 75.4682 15.5426V15.757C75.4682 16.8363 76.0526 17.8637 78.0877 17.8637C79.8066 17.8637 80.8378 16.947 80.8378 15.0306L80.831 13.4393Z" fill="white"/>
<path d="M92.2645 19.5347H91.5048C87.995 19.5347 87.0805 17.2412 87.0805 13.7093V7.93231H86.3449C86.0874 7.92342 85.8432 7.81485 85.6632 7.62926C85.4833 7.44366 85.3814 7.19534 85.3789 6.93605C85.3784 6.67183 85.478 6.41736 85.6575 6.22452C85.837 6.03168 86.0828 5.915 86.3449 5.89827H87.0805V3.13086C87.0759 2.82484 87.1906 2.52917 87.4001 2.30733C87.6097 2.08549 87.8973 1.95517 88.2012 1.94434C88.5022 1.95694 88.7859 2.08874 88.9907 2.311C89.1955 2.53325 89.3046 2.82795 89.2944 3.13086V5.89827H91.6561C91.9181 5.915 92.1639 6.03168 92.3434 6.22452C92.5229 6.41736 92.6226 6.67183 92.6221 6.93605C92.623 7.1964 92.5223 7.44671 92.3416 7.63305C92.1609 7.8194 91.9147 7.92687 91.6561 7.93231H89.2944V13.6816C89.2944 16.3521 89.7241 17.3761 91.7592 17.3761H92.2645C92.549 17.3761 92.8218 17.4898 93.0229 17.6922C93.2241 17.8946 93.3371 18.1691 93.3371 18.4554C93.3371 18.7416 93.2241 19.0161 93.0229 19.2186C92.8218 19.421 92.549 19.5347 92.2645 19.5347Z" fill="white"/>
<path d="M54.075 8.22274C54.2113 8.17224 54.3592 8.16269 54.5008 8.19524C54.6424 8.22779 54.7716 8.30104 54.8725 8.40608L57.5745 11.1216C57.8554 11.3628 58.0987 11.645 58.2965 11.9587C58.4406 12.2198 58.5218 12.5113 58.5337 12.8097C58.5337 14.8852 58.5337 16.9608 58.5337 19.0363C58.5296 19.1772 58.4839 19.3136 58.4025 19.4282C58.3211 19.5428 58.2076 19.6304 58.0765 19.6798C57.9086 19.7258 57.734 19.7411 57.5608 19.7247H45.7352C45.6395 19.7225 45.5452 19.7013 45.4576 19.6623C45.3701 19.6234 45.291 19.5675 45.2249 19.4978C45.1588 19.4281 45.107 19.3459 45.0725 19.2561C45.038 19.1662 45.0214 19.0704 45.0236 18.9741C45.0236 17.7426 45.0236 16.5111 45.0236 15.2831C45.0275 15.1468 45.0696 15.0144 45.145 14.9012C45.2204 14.788 45.3261 14.6985 45.4499 14.6431C45.6341 14.5786 45.8299 14.555 46.024 14.5739C46.3678 14.5739 46.7115 14.5739 47.0553 14.5739C47.2342 14.5846 47.4029 14.6609 47.5297 14.7884C47.6564 14.9159 47.7322 15.0858 47.7428 15.2658C47.7428 15.6117 47.7428 15.9576 47.7428 16.3035C47.7411 16.4536 47.7854 16.6005 47.8697 16.7243C47.954 16.8481 48.0741 16.9428 48.2138 16.9954C48.3765 17.0437 48.5466 17.0613 48.7157 17.0473H55.0788C55.2692 17.0411 55.4499 16.9615 55.5836 16.825C55.7174 16.6885 55.7938 16.5056 55.7973 16.3139C55.7973 15.5875 55.7973 14.8576 55.7973 14.1277C55.8028 13.8492 55.752 13.5726 55.648 13.3145C55.544 13.0564 55.3889 12.8223 55.1923 12.6264L52.9371 10.3778C52.7989 10.2436 52.7172 10.0611 52.7089 9.86794C52.7006 9.67482 52.7663 9.48586 52.8925 9.34007C53.0987 9.1083 53.329 8.89729 53.5456 8.67244C53.6905 8.49127 53.8707 8.34178 54.075 8.23311V8.22274ZM45.5427 0.141932C45.6101 0.124233 45.6794 0.114938 45.749 0.114258H57.8599C58.0422 0.114258 58.2171 0.187149 58.346 0.316896C58.475 0.446643 58.5474 0.622618 58.5474 0.806108V4.55939C58.5414 4.74096 58.467 4.91345 58.3394 5.04191C58.2117 5.17037 58.0403 5.2452 57.8599 5.25124H56.5398C56.3928 5.2516 56.2491 5.20763 56.1271 5.12501C56.0052 5.04239 55.9107 4.9249 55.8557 4.7877C55.7216 4.27227 55.9245 3.70842 55.7354 3.20337C55.6754 3.0808 55.5831 2.97723 55.4685 2.904C55.3539 2.83077 55.2214 2.79073 55.0857 2.78826H48.4922C48.3964 2.78734 48.3014 2.80555 48.2126 2.84182C48.1238 2.87809 48.043 2.93171 47.9749 2.99958C47.9068 3.06745 47.8528 3.14822 47.8159 3.23723C47.779 3.32624 47.76 3.42172 47.76 3.51816V5.71478C47.7518 5.99471 47.802 6.27327 47.9074 6.53246C48.0128 6.79165 48.1711 7.02572 48.3719 7.21956C49.1282 7.97598 49.8834 8.73586 50.6373 9.4992C50.7596 9.62689 50.8338 9.79355 50.847 9.9704C50.8601 10.1472 50.8115 10.3232 50.7095 10.4678C50.5067 10.7099 50.2661 10.9175 50.0495 11.1596C49.8329 11.4018 49.6611 11.6232 49.362 11.6681C49.2298 11.6911 49.094 11.6789 48.968 11.6328C48.842 11.5866 48.7301 11.5082 48.6435 11.4052C47.6878 10.4401 46.7322 9.4819 45.7765 8.52023C45.5597 8.33874 45.3819 8.11485 45.2536 7.86214C45.1254 7.60943 45.0495 7.33315 45.0305 7.05005C45.0305 4.9745 45.0305 2.93355 45.0305 0.875293C45.0239 0.713387 45.0705 0.553793 45.1631 0.421219C45.2556 0.288644 45.3891 0.190483 45.5427 0.141932Z" fill="#F6A558"/>
<path d="M51.5763 13.0488C51.7064 13.0211 51.8414 13.0262 51.9691 13.0636C52.0968 13.1011 52.2134 13.1696 52.3085 13.2633L55.1686 16.1276C55.2889 16.2417 55.4024 16.4735 55.2511 16.5981C55.1085 16.6734 54.9474 16.7058 54.787 16.6915H48.833C48.6319 16.7157 48.4281 16.6821 48.2452 16.5946C48.0974 16.4597 48.2142 16.2487 48.3311 16.131L51.1397 13.3014C51.2555 13.1734 51.4081 13.0852 51.5763 13.0488Z" fill="white"/>
<path d="M48.3413 3.23787C48.4399 3.2112 48.5417 3.1984 48.6438 3.19981H54.8316C54.9932 3.19981 55.196 3.19981 55.2922 3.35548C55.3077 3.43418 55.3011 3.51567 55.2732 3.59081C55.2452 3.66595 55.1971 3.7318 55.1341 3.78098L52.3221 6.60723C52.2461 6.68441 52.1556 6.74568 52.0558 6.78749C51.9561 6.8293 51.8492 6.85083 51.7411 6.85083C51.6331 6.85083 51.5262 6.8293 51.4265 6.78749C51.3267 6.74568 51.2362 6.68441 51.1602 6.60723C50.2114 5.65246 49.2592 4.70115 48.3173 3.74292C48.2835 3.71657 48.2555 3.68362 48.2347 3.64606C48.1488 3.49731 48.1488 3.30013 48.3413 3.23787Z" fill="white"/>
<path d="M96.225 8.46468C96.2268 8.11014 96.3669 7.77047 96.615 7.51879C96.8632 7.26712 97.1997 7.12356 97.552 7.11904V6.93569C97.5604 6.78443 97.538 6.63303 97.4863 6.49076C97.4345 6.34849 97.3544 6.21834 97.251 6.10827C97.1475 5.99819 97.0229 5.91052 96.8846 5.85059C96.7463 5.79067 96.5973 5.75977 96.4468 5.75977C96.2962 5.75977 96.1472 5.79067 96.009 5.85059C95.8707 5.91052 95.746 5.99819 95.6426 6.10827C95.5391 6.21834 95.4591 6.34849 95.4073 6.49076C95.3555 6.63303 95.3332 6.78443 95.3416 6.93569V18.5103C95.3332 18.6616 95.3555 18.813 95.4073 18.9553C95.4591 19.0976 95.5391 19.2277 95.6426 19.3378C95.746 19.4478 95.8707 19.5355 96.009 19.5955C96.1472 19.6554 96.2962 19.6863 96.4468 19.6863C96.5973 19.6863 96.7463 19.6554 96.8846 19.5955C97.0229 19.5355 97.1475 19.4478 97.251 19.3378C97.3544 19.2277 97.4345 19.0976 97.4863 18.9553C97.538 18.813 97.5604 18.6616 97.552 18.5103V9.81033C97.1997 9.8058 96.8632 9.66225 96.615 9.41058C96.3669 9.1589 96.2268 8.81923 96.225 8.46468Z" fill="white"/>
</svg>
