<svg width="18" height="18" viewBox="0 0 18 18" fill="none" xmlns="http://www.w3.org/2000/svg">
<g clip-path="url(#clip0_200:2242)">
<path fill-rule="evenodd" clip-rule="evenodd" d="M14.5816 4.04303H3.00302C2.60335 4.04303 2.27935 4.36702 2.27935 4.76669V13.4506C2.27935 13.8503 2.60335 14.1743 3.00302 14.1743H14.5816C14.9813 14.1743 15.3053 13.8503 15.3053 13.4506V4.76669C15.3053 4.36702 14.9813 4.04303 14.5816 4.04303ZM3.00302 2.5957C1.80402 2.5957 0.832031 3.56769 0.832031 4.76669V13.4506C0.832031 14.6497 1.80402 15.6216 3.00302 15.6216H14.5816C15.7806 15.6216 16.7526 14.6497 16.7526 13.4506V4.76669C16.7526 3.56769 15.7806 2.5957 14.5816 2.5957H3.00302Z" fill="#F67B10"/>
<path fill-rule="evenodd" clip-rule="evenodd" d="M3.89431 5.75064C4.15017 5.4436 4.60649 5.40212 4.91352 5.65798L8.32893 8.50416C8.59733 8.72777 8.9871 8.72777 9.2555 8.50416L12.6709 5.65798C12.9779 5.40212 13.4343 5.4436 13.6901 5.75064C13.946 6.05767 13.9045 6.51398 13.5975 6.76985L10.182 9.61599C9.37694 10.287 8.2075 10.287 7.40235 9.61599L3.98697 6.76985C3.67993 6.51398 3.63845 6.05767 3.89431 5.75064Z" fill="#F67B10"/>
</g>
<defs>
<clipPath id="clip0_200:2242">
<rect width="17.3679" height="17.3679" fill="white" transform="translate(0.109375 0.424805)"/>
</clipPath>
</defs>
</svg>
