<svg width="18" height="18" viewBox="0 0 18 18" fill="none" xmlns="http://www.w3.org/2000/svg">
<g clip-path="url(#clip0_200:2234)">
<path fill-rule="evenodd" clip-rule="evenodd" d="M12.1531 12.3141C13.1668 10.907 13.8598 9.36053 13.8598 7.79518C13.8598 4.99751 11.5919 2.72955 8.7942 2.72955C5.99654 2.72955 3.72857 4.99751 3.72857 7.79518C3.72857 9.36053 4.42162 10.907 5.4353 12.3141C6.44135 13.7105 7.67839 14.8511 8.56039 15.5735C8.70505 15.6919 8.88336 15.6919 9.02802 15.5735C9.91002 14.8511 11.147 13.7105 12.1531 12.3141ZM9.94512 16.6931C11.8152 15.1614 15.3072 11.7693 15.3072 7.79518C15.3072 4.19818 12.3912 1.28223 8.7942 1.28223C5.1972 1.28223 2.28125 4.19818 2.28125 7.79518C2.28125 11.7693 5.77319 15.1614 7.64329 16.6931C8.32136 17.2484 9.26704 17.2484 9.94512 16.6931Z" fill="#F67B10"/>
<path fill-rule="evenodd" clip-rule="evenodd" d="M8.79308 6.34771C7.99372 6.34771 7.34576 6.9957 7.34576 7.79503C7.34576 8.59439 7.99372 9.24235 8.79308 9.24235C9.59243 9.24235 10.2404 8.59439 10.2404 7.79503C10.2404 6.9957 9.59243 6.34771 8.79308 6.34771ZM5.89844 7.79503C5.89844 6.19636 7.19441 4.90039 8.79308 4.90039C10.3917 4.90039 11.6877 6.19636 11.6877 7.79503C11.6877 9.39367 10.3917 10.6897 8.79308 10.6897C7.19441 10.6897 5.89844 9.39367 5.89844 7.79503Z" fill="#F67B10"/>
</g>
<defs>
<clipPath id="clip0_200:2234">
<rect width="17.3679" height="17.3679" fill="white" transform="translate(0.109375 0.558594)"/>
</clipPath>
</defs>
</svg>
